<?xml version="1.0" encoding="UTF-8"?>
<svg xmlns="http://www.w3.org/2000/svg" xmlns:xlink="http://www.w3.org/1999/xlink" width="475px" height="300px" viewBox="0 0 475 300">
  <!-- Generator: Sketch 57.1 (83088) - https://sketch.com -->
  <title>Receipt Scanning Illustration Updates</title>
  <desc>Created with Sketch.</desc>
  <g id="Receipt-Scanning-Illustration-Updates" stroke="none" stroke-width="1" fill="none" fill-rule="evenodd">
    <g id="Receipts_scan" transform="translate(87.500000, 0.000000)">
      <g id="Layer_5" fill="#723FCD" fill-rule="nonzero">
        <path d="M299.333669,149.744341 C299.333669,207.893462 266.155808,258.29216 217.697431,283.044816 C197.307782,293.459885 175.382627,281.710942 150.915358,281.710942 C134.905776,281.710942 118.314563,296.819384 103.854446,292.163236 C43.6874531,272.791052 0.15497793,216.35115 0.15497793,149.744341 C0.12974723,130.050034 4.00478944,110.545673 11.5566164,92.356768 C19.5583053,73.1133189 50.3009832,73.5894807 65.1178341,59.402342 C77.525958,47.5169104 73.1381352,20.0499772 89.053105,12.9773466 C108.160445,4.49435234 128.838582,0.125679843 149.744341,0.154953922 C176.215522,0.154953922 201.082953,7.03075319 222.649824,19.0930006 C238.470182,27.9337889 237.899408,62.2670676 249.507208,76.026126 C261.115008,89.7851844 284.904483,82.9731243 290.973607,100.311926 C296.525484,116.20069 299.351949,132.913541 299.333669,149.744341 Z" id="Path"></path>
      </g>
      <g id="Layer_7" transform="translate(11.477515, 12.873429)" fill-rule="nonzero">
        <path d="M202.615357,271.948851 C183.430846,233.893135 157.367582,182.225707 157.367582,182.225707 L63.9561235,219.246896 L92.3769312,279.288256 C128.720026,290.944117 168.138215,288.31975 202.615357,271.948851 L202.615357,271.948851 Z" id="Path" fill="#000000"></path>
        <path d="M206.219917,270.169836 C186.911325,231.859754 159.185372,176.902622 159.185372,176.902622 L65.7739136,213.923811 L97.4394458,280.82066 C110.723532,284.573571 124.462799,286.471378 138.266826,286.460201 C162.734096,286.460201 185.830267,280.584905 206.219917,270.169836 Z" id="Path" fill="#47BFFF"></path>
        <rect id="Rectangle" fill="#000000" transform="translate(139.122523, 249.891065) rotate(-21.640000) translate(-139.122523, -249.891065) " x="95.1279685" y="249.656086" width="87.9891084" height="1"></rect>
        <rect id="Rectangle" fill="#000000" transform="translate(124.000080, 270.356235) rotate(-21.650000) translate(-124.000080, -270.356235) " x="106.824135" y="268.944811" width="34.3518909" height="2.82284818"></rect>
        <rect id="Rectangle" fill="#000000" transform="translate(166.623040, 253.443786) rotate(-21.650000) translate(-166.623040, -253.443786) " x="163.113092" y="251.562404" width="7.01989608" height="3.76276356"></rect>
        <rect id="Rectangle" fill="#000000" transform="translate(175.968381, 249.736317) rotate(-21.650000) translate(-175.968381, -249.736317) " x="172.459208" y="247.854935" width="7.01834507" height="3.76276356"></rect>
        <path d="M128.169716,279.213807 L127.128984,276.59104 L111.130259,282.950204 L111.584707,284.094853 C112.589765,284.274771 113.597925,284.444866 114.609187,284.605137 L128.169716,279.213807 Z" id="Path" fill="#000000"></path>
        <rect id="Rectangle" fill="#000000" transform="translate(170.374801, 260.924310) rotate(-21.660000) translate(-170.374801, -260.924310) " x="166.857873" y="259.042928" width="7.03385522" height="3.76276356"></rect>
        <rect id="Rectangle" fill="#000000" transform="translate(179.737564, 257.205271) rotate(-21.660000) translate(-179.737564, -257.205271) " x="176.221412" y="255.323889" width="7.03230421" height="3.76276356"></rect>
        <path d="M152.939433,278.413483 L151.898701,275.790716 L126.238701,285.980888 C128.451483,286.157704 130.678225,286.285404 132.918925,286.363989 L152.939433,278.413483 Z" id="Path" fill="#000000"></path>
        <rect id="Rectangle" fill="#000000" transform="translate(174.093445, 268.507061) rotate(-21.660000) translate(-174.093445, -268.507061) " x="170.569538" y="266.625679" width="7.04781436" height="3.76276356"></rect>
        <rect id="Rectangle" fill="#000000" transform="translate(183.486875, 264.764353) rotate(-21.660000) translate(-183.486875, -264.764353) " x="179.962968" y="262.882971" width="7.04781436" height="3.76276356"></rect>
        <rect id="Rectangle" fill="#000000" transform="translate(177.851192, 276.085286) rotate(-21.660000) translate(-177.851192, -276.085286) " x="174.31953" y="274.203904" width="7.06332452" height="3.76276356"></rect>
        <rect id="Rectangle" fill="#000000" transform="translate(187.251451, 272.353139) rotate(-21.660000) translate(-187.251451, -272.353139) " x="183.720564" y="270.471757" width="7.0617735" height="3.76276356"></rect>
        <rect id="Rectangle" fill="#000000" transform="translate(119.743985, 211.791111) rotate(-21.630000) translate(-119.743985, -211.791111) " x="89.6620396" y="209.909729" width="60.1638906" height="3.76276356"></rect>
        <rect id="Rectangle" fill="#000000" transform="translate(124.164854, 219.985629) rotate(-21.695109) translate(-124.164854, -219.985629) " x="101.763567" y="218.102555" width="44.8025748" height="3.76614853"></rect>
        <rect id="Rectangle" fill="#000000" transform="translate(127.848078, 228.371718) rotate(-21.640000) translate(-127.848078, -228.371718) " x="112.988574" y="226.490336" width="29.7190077" height="3.76276356"></rect>
        <rect id="Rectangle" fill="#000000" transform="translate(131.907165, 236.740563) rotate(-21.640000) translate(-131.907165, -236.740563) " x="113.727712" y="234.859181" width="36.358905" height="3.76276356"></rect>
        <path d="M0.0822038207,79.4833395 L22.0569912,93.7309677 L62.0964559,115.386246 C62.0964559,115.386246 92.0310548,80.4015407 104.097955,64.1422454 C116.164856,47.88295 118.955133,28.5728073 118.955133,28.5728073 C118.955133,28.5728073 106.547009,24.3757594 94.4754552,16.9401911 C91.5766072,15.1518703 82.9979406,9.88307067 71.6398542,2.91125606 C39.3644693,19.0119965 13.9634381,46.1930158 0.0822038207,79.4833395 Z" id="Path" fill="#000000"></path>
        <path d="M2.29860495,74.420825 L23.8732303,88.4094336 L63.9142461,110.06161 C63.9142461,110.06161 93.8488449,75.0784555 105.915745,58.8191602 C117.982646,42.5598649 120.772923,23.2497221 120.772923,23.2497221 C120.772923,23.2497221 108.364799,19.0526742 96.2932453,11.6077999 C93.752682,10.0428253 86.8692752,5.810104 77.5771415,0.108571084 C44.3013477,14.9285799 17.5472496,41.3392598 2.29860495,74.420825 Z" id="Path" fill="#47BFFF"></path>
        <rect id="Rectangle" fill="#000000" transform="translate(55.257148, 47.046875) rotate(-53.390000) translate(-55.257148, -47.046875) " x="10.4994938" y="46.8118959" width="89.5153077" height="1"></rect>
        <rect id="Rectangle" fill="#000000" transform="translate(15.147758, 61.024472) rotate(-53.380000) translate(-15.147758, -61.024472) " x="8.35430997" y="59.6138231" width="13.5868956" height="2.82129717"></rect>
        <path d="M48.4071933,19.432673 L51.9233454,14.7020758 C50.2472146,15.8901536 48.5959001,17.1139049 46.9694019,18.3733294 L48.4071933,19.432673 Z" id="Path" fill="#000000"></path>
        <rect id="Rectangle" fill="#000000" transform="translate(26.908415, 59.459734) rotate(-53.380000) translate(-26.908415, -59.459734) " x="12.4056446" y="58.0490853" width="29.0055406" height="2.82129717"></rect>
        <rect id="Rectangle" fill="#000000" transform="translate(56.249876, 19.986847) rotate(-53.380000) translate(-56.249876, -19.986847) " x="52.7042546" y="18.1054653" width="7.09124279" height="3.76276356"></rect>
        <rect id="Rectangle" fill="#000000" transform="translate(62.309122, 11.833439) rotate(-53.380000) translate(-62.309122, -11.833439) " x="58.7635009" y="9.95205741" width="7.09124279" height="3.76276356"></rect>
        <rect id="Rectangle" fill="#000000" transform="translate(46.229811, 76.591978) rotate(-53.390000) translate(-46.229811, -76.591978) " x="35.6650688" y="72.359257" width="21.1294839" height="8.46544251"></rect>
        <rect id="Rectangle" fill="#000000" transform="translate(76.255819, 36.173589) rotate(-53.390000) translate(-76.255819, -36.173589) " x="71.5508136" y="32.8815584" width="9.41001094" height="6.58406073"></rect>
        <rect id="Rectangle" fill="#000000" transform="translate(84.286110, 25.343605) rotate(-53.400000) translate(-84.286110, -25.343605) " x="79.5818797" y="22.0507991" width="9.40845993" height="6.58561175"></rect>
        <path d="M251.760833,39.4221606 L211.803573,7.98152568 L137.509931,116.130733 L114.793758,155.576159 C114.793758,155.576159 148.965731,186.43051 164.891558,198.931695 C180.817385,211.43288 200.057732,214.73189 200.057732,214.73189 C200.057732,214.73189 204.583595,202.438541 212.347979,190.573273 C218.159634,181.689056 259.219667,118.596848 279.494541,87.4400489 C273.327428,69.8436621 263.920861,53.5572176 251.760833,39.4221606 Z" id="Path" fill="#000000"></path>
        <path d="M211.172309,6.21957209 L139.324619,110.804546 L116.611548,150.253074 C116.611548,150.253074 150.783521,181.105874 166.709348,193.607059 C182.635175,206.108244 201.869318,209.408805 201.869318,209.408805 C201.869318,209.408805 206.396733,197.115456 214.161116,185.248636 C219.752527,176.704092 257.960242,117.995054 278.906706,85.8052786 C266.582337,51.8535497 242.310496,23.6312719 211.172309,6.21957209 Z" id="Path" fill="#47BFFF"></path>
        <rect id="Rectangle" fill="#000000" transform="translate(219.383354, 84.130365) rotate(-51.830000) translate(-219.383354, -84.130365) " x="219.148375" y="40.1358106" width="1" height="87.9891084"></rect>
        <rect id="Rectangle" fill="#000000" transform="translate(179.830153, 143.276091) rotate(-51.860000) translate(-179.830153, -143.276091) " x="179.595174" y="98.5184368" width="1" height="89.5153077"></rect>
        <rect id="Rectangle" fill="#000000" transform="translate(194.128903, 81.374897) rotate(-51.830000) translate(-194.128903, -81.374897) " x="192.717479" y="64.1989511" width="2.82284818" height="34.3518909"></rect>
        <rect id="Rectangle" fill="#000000" transform="translate(230.187017, 109.720527) rotate(-51.830000) translate(-230.187017, -109.720527) " x="228.305635" y="106.210579" width="3.76276356" height="7.01989608"></rect>
        <rect id="Rectangle" fill="#000000" transform="translate(238.094057, 115.935793) rotate(-51.830000) translate(-238.094057, -115.935793) " x="236.212675" y="112.42662" width="3.76276356" height="7.01834507"></rect>
        <rect id="Rectangle" fill="#000000" transform="translate(182.648220, 82.975102) rotate(-51.840000) translate(-182.648220, -82.975102) " x="181.236796" y="74.3685173" width="2.82284818" height="17.2131698"></rect>
        <rect id="Rectangle" fill="#000000" transform="translate(226.593102, 116.077735) rotate(-51.874818) translate(-226.593102, -116.077735) " x="224.703742" y="112.545892" width="3.77872147" height="7.06368585"></rect>
        <rect id="Rectangle" fill="#000000" transform="translate(233.473963, 122.920842) rotate(-51.840000) translate(-233.473963, -122.920842) " x="231.592581" y="119.40469" width="3.76276356" height="7.03230421"></rect>
        <rect id="Rectangle" fill="#000000" transform="translate(186.854327, 96.976579) rotate(-51.840000) translate(-186.854327, -96.976579) " x="185.443678" y="76.993296" width="2.82129717" height="39.966567"></rect>
        <rect id="Rectangle" fill="#000000" transform="translate(220.914458, 123.743749) rotate(-51.840000) translate(-220.914458, -123.743749) " x="219.033076" y="120.219842" width="3.76276356" height="7.04781436"></rect>
        <rect id="Rectangle" fill="#000000" transform="translate(228.852024, 129.976981) rotate(-51.840000) translate(-228.852024, -129.976981) " x="226.970642" y="126.453074" width="3.76276356" height="7.04781436"></rect>
        <rect id="Rectangle" fill="#000000" transform="translate(175.765642, 98.996699) rotate(-51.840000) translate(-175.765642, -98.996699) " x="174.354994" y="87.0616344" width="2.82129717" height="23.8701283"></rect>
        <rect id="Rectangle" fill="#000000" transform="translate(216.256933, 130.812443) rotate(-51.840000) translate(-216.256933, -130.812443) " x="214.375551" y="127.280781" width="3.76276356" height="7.06332452"></rect>
        <rect id="Rectangle" fill="#000000" transform="translate(224.196781, 137.021925) rotate(-51.850000) translate(-224.196781, -137.021925) " x="222.315399" y="133.491038" width="3.76276356" height="7.0617735"></rect>
        <rect id="Rectangle" fill="#000000" transform="translate(166.927223, 102.805989) rotate(-51.850000) translate(-166.927223, -102.805989) " x="165.516575" y="96.0125408" width="2.82129717" height="13.5868956"></rect>
        <rect id="Rectangle" fill="#000000" transform="translate(211.563868, 137.866205) rotate(-51.850000) translate(-211.563868, -137.866205) " x="209.682486" y="134.327563" width="3.76276356" height="7.07728365"></rect>
        <rect id="Rectangle" fill="#000000" transform="translate(219.534170, 144.130983) rotate(-51.850000) translate(-219.534170, -144.130983) " x="217.652789" y="140.593117" width="3.76276356" height="7.07573264"></rect>
        <rect id="Rectangle" fill="#000000" transform="translate(168.187658, 114.618460) rotate(-51.850000) translate(-168.187658, -114.618460) " x="166.777009" y="100.11569" width="2.82129717" height="29.0055406"></rect>
        <rect id="Rectangle" fill="#000000" transform="translate(206.864720, 144.993693) rotate(-51.850000) translate(-206.864720, -144.993693) " x="204.983338" y="141.448071" width="3.76276356" height="7.09124279"></rect>
        <rect id="Rectangle" fill="#000000" transform="translate(214.857148, 151.280523) rotate(-51.850000) translate(-214.857148, -151.280523) " x="212.975767" y="147.734902" width="3.76276356" height="7.09124279"></rect>
        <rect id="Rectangle" fill="#000000" transform="translate(150.551165, 133.483031) rotate(-51.860000) translate(-150.551165, -133.483031) " x="146.318443" y="122.918289" width="8.46544251" height="21.1294839"></rect>
        <rect id="Rectangle" fill="#000000" transform="translate(190.150943, 164.576656) rotate(-51.860000) translate(-190.150943, -164.576656) " x="186.858912" y="159.87165" width="6.58406073" height="9.41001094"></rect>
        <rect id="Rectangle" fill="#000000" transform="translate(200.754114, 172.902696) rotate(-51.860000) translate(-200.754114, -172.902696) " x="197.461308" y="168.198466" width="6.58561175" height="9.40845993"></rect>
        <rect id="Rectangle" fill="#000000" transform="translate(242.571367, 48.230500) rotate(-51.810000) translate(-242.571367, -48.230500) " x="240.689985" y="18.1485546" width="3.76276356" height="60.1638906"></rect>
        <rect id="Rectangle" fill="#000000" transform="translate(237.464297, 55.897865) rotate(-51.810000) translate(-237.464297, -55.897865) " x="235.582916" y="33.5167111" width="3.76276356" height="44.7623069"></rect>
        <rect id="Rectangle" fill="#000000" transform="translate(232.307845, 63.565150) rotate(-51.820000) translate(-232.307845, -63.565150) " x="230.426464" y="48.705646" width="3.76276356" height="29.7190077"></rect>
        <rect id="Rectangle" fill="#000000" transform="translate(227.150211, 71.300328) rotate(-51.820000) translate(-227.150211, -71.300328) " x="225.268829" y="53.1208759" width="3.76276356" height="36.358905"></rect>
        <path d="M186.44602,175.810707 C176.440419,165.76478 84.7847104,74.2098869 84.7847104,74.2098869 L7.67132259,138.631315 L98.1436068,233.662034 L132.062764,264.034019 C132.062764,264.034019 169.310401,236.971901 184.831413,223.965085 C200.352425,210.958269 207.55379,192.826898 207.55379,192.826898 C207.55379,192.826898 196.453172,185.858185 186.44602,175.810707 Z" id="Path" fill="#000000"></path>
        <path d="M209.363825,187.503813 C209.363825,187.503813 202.16246,205.636735 186.641448,218.642 C171.120436,231.647265 133.872799,258.709383 133.872799,258.709383 L99.967601,228.338949 L9.49531679,133.303577 L86.6009496,68.8790466 C86.6009496,68.8790466 178.256659,160.440144 188.263811,170.487622 C198.270962,180.5351 209.363825,187.503813 209.363825,187.503813 Z" id="Path" fill="#47BFFF"></path>
        <rect id="Rectangle" fill="#000000" transform="translate(90.415779, 144.485705) rotate(-39.910000) translate(-90.415779, -144.485705) " x="46.4212245" y="144.250727" width="87.9891084" height="1"></rect>
        <rect id="Rectangle" fill="#000000" transform="translate(140.114299, 195.405618) rotate(-39.940000) translate(-140.114299, -195.405618) " x="95.3566454" y="195.17064" width="89.5153077" height="1"></rect>
        <rect id="Rectangle" fill="#000000" transform="translate(82.471669, 168.654586) rotate(-39.910000) translate(-82.471669, -168.654586) " x="65.2957233" y="167.243162" width="34.3518909" height="2.82284818"></rect>
        <rect id="Rectangle" fill="#000000" transform="translate(117.659092, 139.198287) rotate(-39.920000) translate(-117.659092, -139.198287) " x="114.149144" y="137.316905" width="7.01989608" height="3.76276356"></rect>
        <rect id="Rectangle" fill="#000000" transform="translate(125.364736, 132.779812) rotate(-39.910000) translate(-125.364736, -132.779812) " x="121.855563" y="130.89843" width="7.01834507" height="3.76276356"></rect>
        <rect id="Rectangle" fill="#000000" transform="translate(81.672799, 180.982320) rotate(-39.732303) translate(-81.672799, -180.982320) " x="73.0554631" y="179.569133" width="17.2346729" height="2.82637454"></rect>
        <rect id="Rectangle" fill="#000000" transform="translate(123.551976, 145.177261) rotate(-39.920000) translate(-123.551976, -145.177261) " x="120.035049" y="143.295879" width="7.03385522" height="3.76276356"></rect>
        <rect id="Rectangle" fill="#000000" transform="translate(131.277336, 138.715224) rotate(-39.920000) translate(-131.277336, -138.715224) " x="127.761184" y="136.833843" width="7.03230421" height="3.76276356"></rect>
        <rect id="Rectangle" fill="#000000" transform="translate(96.247424, 178.981324) rotate(-39.920000) translate(-96.247424, -178.981324) " x="76.2641407" y="177.570676" width="39.966567" height="2.82129717"></rect>
        <rect id="Rectangle" fill="#000000" transform="translate(129.465226, 151.197923) rotate(-39.920000) translate(-129.465226, -151.197923) " x="125.941319" y="149.316541" width="7.04781436" height="3.76276356"></rect>
        <rect id="Rectangle" fill="#000000" transform="translate(137.210623, 144.708164) rotate(-39.920000) translate(-137.210623, -144.708164) " x="133.686716" y="142.826783" width="7.04781436" height="3.76276356"></rect>
        <rect id="Rectangle" fill="#000000" transform="translate(95.913791, 190.264958) rotate(-39.920000) translate(-95.913791, -190.264958) " x="83.9787272" y="188.854309" width="23.8701283" height="2.82129717"></rect>
        <rect id="Rectangle" fill="#000000" transform="translate(135.408819, 157.219282) rotate(-39.920000) translate(-135.408819, -157.219282) " x="131.877157" y="155.337901" width="7.06332452" height="3.76276356"></rect>
        <rect id="Rectangle" fill="#000000" transform="translate(143.370699, 151.542309) rotate(-39.732303) translate(-143.370699, -151.542309) " x="139.835401" y="149.658577" width="7.07059521" height="3.76746408"></rect>
        <rect id="Rectangle" fill="#000000" transform="translate(97.852818, 199.670146) rotate(-39.930000) translate(-97.852818, -199.670146) " x="91.0593706" y="198.259497" width="13.5868956" height="2.82129717"></rect>
        <rect id="Rectangle" fill="#000000" transform="translate(141.377280, 163.249715) rotate(-39.930000) translate(-141.377280, -163.249715) " x="137.838638" y="161.368334" width="7.07728365" height="3.76276356"></rect>
        <rect id="Rectangle" fill="#000000" transform="translate(149.152584, 156.734335) rotate(-39.930000) translate(-149.152584, -156.734335) " x="145.614717" y="154.852953" width="7.07573264" height="3.76276356"></rect>
        <rect id="Rectangle" fill="#000000" transform="translate(109.652514, 200.892206) rotate(-39.930000) translate(-109.652514, -200.892206) " x="95.1497434" y="199.481557" width="29.0055406" height="2.82129717"></rect>
        <rect id="Rectangle" fill="#000000" transform="translate(147.367431, 169.331587) rotate(-39.930000) translate(-147.367431, -169.331587) " x="143.82181" y="167.450205" width="7.09124279" height="3.76276356"></rect>
        <rect id="Rectangle" fill="#000000" transform="translate(155.156125, 162.807819) rotate(-39.930000) translate(-155.156125, -162.807819) " x="151.610504" y="160.926437" width="7.09124279" height="3.76276356"></rect>
        <rect id="Rectangle" fill="#000000" transform="translate(124.455560, 222.055774) rotate(-39.940000) translate(-124.455560, -222.055774) " x="113.890818" y="217.823052" width="21.1294839" height="8.46544251"></rect>
        <rect id="Rectangle" fill="#000000" transform="translate(163.060335, 189.723536) rotate(-39.940000) translate(-163.060335, -189.723536) " x="158.35533" y="186.431506" width="9.41001094" height="6.58406073"></rect>
        <rect id="Rectangle" fill="#000000" transform="translate(173.393468, 181.078618) rotate(-39.940000) translate(-173.393468, -181.078618) " x="168.689238" y="177.785812" width="9.40845993" height="6.58561175"></rect>
        <rect id="Rectangle" fill="#000000" transform="translate(60.071255, 114.390294) rotate(-39.890000) translate(-60.071255, -114.390294) " x="29.9893094" y="112.508912" width="60.1638906" height="3.76276356"></rect>
        <rect id="Rectangle" fill="#000000" transform="translate(66.498351, 120.987896) rotate(-39.890000) translate(-66.498351, -120.987896) " x="44.1171972" y="119.106514" width="44.7623069" height="3.76276356"></rect>
        <rect id="Rectangle" fill="#000000" transform="translate(72.966690, 127.586645) rotate(-39.900000) translate(-72.966690, -127.586645) " x="58.1071864" y="125.705264" width="29.7190077" height="3.76276356"></rect>
        <rect id="Rectangle" fill="#000000" transform="translate(79.449257, 134.251319) rotate(-39.900000) translate(-79.449257, -134.251319) " x="61.2698044" y="132.369937" width="36.358905" height="3.76276356"></rect>
        <path d="M221.409011,169.121177 C215.580295,156.195014 162.028384,38.2263276 162.028384,38.2263276 L67.1760316,71.3839366 L118.398318,192.181676 L139.440945,232.546854 C139.440945,232.546854 183.831008,220.329505 202.937968,213.624465 C222.044928,206.919425 235.16807,192.479471 235.16807,192.479471 C235.16807,192.479471 227.237728,182.048891 221.409011,169.121177 Z" id="Path" fill="#000000"></path>
        <path d="M236.98586,187.153283 C236.98586,187.153283 223.861167,201.588585 204.754207,208.296726 C185.647247,215.004868 141.257184,227.219115 141.257184,227.219115 L120.216108,186.85859 L68.9938218,66.0593005 L163.846174,32.9032425 C163.846174,32.9032425 217.398085,150.870378 223.226802,163.798092 C229.055518,176.725806 236.98586,187.153283 236.98586,187.153283 Z" id="Path" fill="#47BFFF"></path>
        <rect id="Rectangle" fill="#000000" transform="translate(140.789163, 105.032636) rotate(-19.290000) translate(-140.789163, -105.032636) " x="96.7946085" y="104.797657" width="87.9891084" height="1"></rect>
        <rect id="Rectangle" fill="#000000" transform="translate(169.372121, 170.194908) rotate(-19.320000) translate(-169.372121, -170.194908) " x="124.614467" y="169.959929" width="89.5153077" height="1"></rect>
        <rect id="Rectangle" fill="#000000" transform="translate(124.863135, 124.827641) rotate(-19.300000) translate(-124.863135, -124.827641) " x="107.68719" y="123.416217" width="34.3518909" height="2.82284818"></rect>
        <rect id="Rectangle" fill="#000000" transform="translate(168.147556, 109.676227) rotate(-19.300000) translate(-168.147556, -109.676227) " x="164.637608" y="107.794845" width="7.01989608" height="3.76276356"></rect>
        <rect id="Rectangle" fill="#000000" transform="translate(177.637730, 106.352596) rotate(-19.300000) translate(-177.637730, -106.352596) " x="174.128558" y="104.471214" width="7.01834507" height="3.76276356"></rect>
        <rect id="Rectangle" fill="#000000" transform="translate(120.063080, 135.383286) rotate(-19.300000) translate(-120.063080, -135.383286) " x="111.456495" y="133.971862" width="17.2131698" height="2.82284818"></rect>
        <rect id="Rectangle" fill="#000000" transform="translate(171.558518, 117.350088) rotate(-19.300000) translate(-171.558518, -117.350088) " x="168.041591" y="115.468706" width="7.03385522" height="3.76276356"></rect>
        <rect id="Rectangle" fill="#000000" transform="translate(180.231520, 113.607790) rotate(-19.344329) translate(-180.231520, -113.607790) " x="176.728578" y="111.733476" width="7.00588343" height="3.74862664"></rect>
        <rect id="Rectangle" fill="#000000" transform="translate(134.120511, 139.339549) rotate(-19.310000) translate(-134.120511, -139.339549) " x="114.137227" y="137.9289" width="39.966567" height="2.82129717"></rect>
        <rect id="Rectangle" fill="#000000" transform="translate(174.991363, 125.031274) rotate(-19.310000) translate(-174.991363, -125.031274) " x="171.467456" y="123.149892" width="7.04781436" height="3.76276356"></rect>
        <rect id="Rectangle" fill="#000000" transform="translate(183.658380, 121.282199) rotate(-19.344329) translate(-183.658380, -121.282199) " x="180.147713" y="119.407885" width="7.02133532" height="3.74862664"></rect>
        <rect id="Rectangle" fill="#000000" transform="translate(129.838967, 149.785502) rotate(-19.310000) translate(-129.838967, -149.785502) " x="117.903903" y="148.374854" width="23.8701283" height="2.82129717"></rect>
        <rect id="Rectangle" fill="#000000" transform="translate(178.433925, 132.759396) rotate(-19.310000) translate(-178.433925, -132.759396) " x="174.902263" y="130.878015" width="7.06332452" height="3.76276356"></rect>
        <rect id="Rectangle" fill="#000000" transform="translate(187.977312, 129.420341) rotate(-19.310000) translate(-187.977312, -129.420341) " x="184.446425" y="127.538959" width="7.0617735" height="3.76276356"></rect>
        <rect id="Rectangle" fill="#000000" transform="translate(128.313420, 159.303561) rotate(-19.310000) translate(-128.313420, -159.303561) " x="121.519972" y="157.892913" width="13.5868956" height="2.82129717"></rect>
        <rect id="Rectangle" fill="#000000" transform="translate(181.895646, 140.502282) rotate(-19.320000) translate(-181.895646, -140.502282) " x="178.357005" y="138.6209" width="7.07728365" height="3.76276356"></rect>
        <rect id="Rectangle" fill="#000000" transform="translate(191.451796, 137.181020) rotate(-19.310000) translate(-191.451796, -137.181020) " x="187.913929" y="135.299638" width="7.07573264" height="3.76276356"></rect>
        <rect id="Rectangle" fill="#000000" transform="translate(138.952341, 164.566704) rotate(-19.320000) translate(-138.952341, -164.566704) " x="124.449571" y="163.156056" width="29.0055406" height="2.82129717"></rect>
        <rect id="Rectangle" fill="#000000" transform="translate(185.362670, 148.302136) rotate(-19.320000) translate(-185.362670, -148.302136) " x="181.817049" y="146.420754" width="7.09124279" height="3.76276356"></rect>
        <rect id="Rectangle" fill="#000000" transform="translate(194.951532, 144.938032) rotate(-19.320000) translate(-194.951532, -144.938032) " x="191.405911" y="143.056651" width="7.09124279" height="3.76276356"></rect>
        <rect id="Rectangle" fill="#000000" transform="translate(145.359764, 189.586015) rotate(-19.330000) translate(-145.359764, -189.586015) " x="134.795022" y="185.353293" width="21.1294839" height="8.46544251"></rect>
        <rect id="Rectangle" fill="#000000" transform="translate(192.873171, 172.912706) rotate(-19.330000) translate(-192.873171, -172.912706) " x="188.168165" y="169.620676" width="9.41001094" height="6.58406073"></rect>
        <rect id="Rectangle" fill="#000000" transform="translate(205.582650, 168.470632) rotate(-19.330000) translate(-205.582650, -168.470632) " x="200.87842" y="165.178602" width="9.40845993" height="6.58406073"></rect>
        <rect id="Rectangle" fill="#000000" transform="translate(122.994799, 66.149076) rotate(-19.280000) translate(-122.994799, -66.149076) " x="92.9128536" y="64.2676947" width="60.1638906" height="3.76276356"></rect>
        <rect id="Rectangle" fill="#000000" transform="translate(126.690551, 74.590779) rotate(-19.280000) translate(-126.690551, -74.590779) " x="104.309398" y="72.7093971" width="44.7623069" height="3.76276356"></rect>
        <rect id="Rectangle" fill="#000000" transform="translate(129.794963, 82.684411) rotate(-19.344329) translate(-129.794963, -82.684411) " x="114.991287" y="80.8100972" width="29.6073517" height="3.74862664"></rect>
        <rect id="Rectangle" fill="#000000" transform="translate(134.138836, 91.564952) rotate(-19.290000) translate(-134.138836, -91.564952) " x="115.959383" y="89.6835705" width="36.358905" height="3.76276356"></rect>
      </g>
      <g id="Layer_6" transform="translate(46.220261, 44.359043)">
        <rect id="Rectangle" x="12.3119609" y="12.316614" width="57.195247" height="59.0518125"></rect>
        <rect id="Rectangle" x="137.542502" y="12.316614" width="57.195247" height="59.0518125"></rect>
        <rect id="Rectangle" x="137.542502" y="139.403721" width="57.195247" height="55.3402325"></rect>
        <rect id="Rectangle" x="12.3119609" y="139.403721" width="57.195247" height="55.3402325"></rect>
        <polygon id="Path" fill="#FFFFFF" fill-rule="nonzero" points="12.3119609 12.316614 69.5072079 12.316614 69.5072079 0.0635916349 0.0589385884 0.0635916349 0.0589385884 71.3684265 12.3119609 71.3684265"></polygon>
        <polygon id="Path" fill="#FFFFFF" fill-rule="nonzero" points="194.737749 12.316614 194.737749 71.3684265 206.990771 71.3684265 206.990771 0.0635916349 137.542502 0.0635916349 137.542502 12.316614"></polygon>
        <polygon id="Path" fill="#FFFFFF" fill-rule="nonzero" points="194.737749 194.742402 137.542502 194.742402 137.542502 206.995425 206.990771 206.995425 206.990771 139.403721 194.737749 139.403721"></polygon>
        <polygon id="Path" fill="#FFFFFF" fill-rule="nonzero" points="12.3119609 194.742402 12.3119609 139.403721 0.0589385884 139.403721 0.0589385884 206.995425 69.5072079 206.995425 69.5072079 194.742402"></polygon>
      </g>
    </g>
  </g>
</svg>
